<?xml version="1.0" encoding="UTF-8" standalone="no"?>
<!-- Created with Inkscape (http://www.inkscape.org/) -->

<svg
   width="51.435036mm"
   height="70.132286mm"
   viewBox="0 0 51.435036 70.132286"
   version="1.1"
   id="svg1"
   xmlns="http://www.w3.org/2000/svg"
   xmlns:svg="http://www.w3.org/2000/svg">
  <defs
     id="defs1" />
  <g
     id="layer1"
     transform="translate(-38.594569,-35.52997)">
    <path
       d="m 53.05847,69.819998 q 0,-0.211667 0,-0.776112 0.07056,-0.564445 0.07056,-1.199445 0,-0.635 0,-1.199445 0.07055,-0.564445 0.07055,-0.776112 0.282223,-0.423333 0.705556,-0.776111 0.49389,-0.352778 0.987779,-0.635001 0.564445,-0.352778 1.058334,-0.635 0.493889,-0.352778 0.776112,-0.635001 0.352778,-0.352778 0.917222,-0.846667 0.635001,-0.564445 0.635001,-0.635 v -0.211667 q -1.411112,0 -2.610557,0.141111 -1.12889,0.141111 -2.116669,1.12889 -0.564444,0.564444 -1.975556,1.76389 -1.411112,1.199445 -2.963336,2.540001 -1.552223,1.270001 -2.963335,2.469447 -1.411112,1.128889 -1.905001,1.622778 -1.340557,1.12889 -1.76389,2.25778 -0.352778,1.058334 -0.352778,2.681113 0,5.573892 1.058334,10.936118 1.058334,5.29167 3.104446,10.583341 v 0.352778 q -0.564445,0 -0.846667,-0.705556 -0.211667,-0.705557 -0.352778,-0.917223 -2.469446,-5.503337 -4.233336,-11.07723 -1.76389,-5.644448 -1.76389,-11.71223 0,-0.141111 0,-0.564445 0,-0.493889 0,-0.917223 0.07055,-0.493889 0.07055,-0.917223 0,-0.423333 0,-0.564444 0,-0.282223 0.282223,-0.282223 0.141111,0 0.705556,0.07056 0.635,0 0.776111,-0.07056 1.058334,-0.352778 2.116668,-1.058334 1.12889,-0.705556 2.25778,-1.552223 1.128889,-0.846667 2.116668,-1.693335 0.987778,-0.917222 1.834445,-1.693334 0.282223,-0.211667 0.917223,-0.846667 0.705556,-0.635001 1.411112,-1.340557 0.776112,-0.705556 1.411112,-1.340556 0.705556,-0.635001 1.058334,-0.846667 0.423334,-0.49389 0.987779,-0.564445 0.635,-0.141112 1.340556,-0.141112 0.776112,0 1.481668,0 0.776112,0 1.411112,-0.282222 v -0.141111 q 0,-0.352778 -0.352778,-0.564445 -0.352778,-0.211667 -0.846667,-0.282222 -0.493889,-0.141112 -0.987779,-0.141112 -0.493889,0 -0.776111,0 -3.175002,0 -5.997227,0.917223 -2.822224,0.917223 -5.503337,2.25778 h -0.211666 q -0.352778,0 -0.846668,-0.352778 -0.493889,-0.352778 -0.987778,-0.776112 -0.493889,-0.493889 -0.846667,-0.987779 -0.352778,-0.493889 -0.423334,-0.846667 0.776112,-5.503337 2.328335,-10.301118 1.622779,-4.868336 4.303892,-9.807229 0.141111,-0.211666 0.493889,-0.987778 0.423334,-0.846667 0.635,-1.058334 0,-0.07056 0.07056,-0.141111 0.141111,-0.141112 0.211667,-0.211667 l 0.282222,0.352778 q -2.257779,4.727225 -3.668891,9.595562 -1.340557,4.868336 -1.340557,10.160007 v 2.187223 q 0.07056,0.282223 0.423334,0.282223 l 0.141111,-0.07056 q 0.423334,-0.07055 1.340557,-0.211667 0.987778,-0.211666 2.046112,-0.423333 1.058334,-0.282223 2.046113,-0.493889 0.987778,-0.211667 1.411112,-0.352778 0.141111,0 0.564445,-0.141112 0.493889,-0.141111 0.987778,-0.282222 0.564445,-0.141111 0.987778,-0.282222 0.49389,-0.141112 0.635001,-0.141112 h 0.987778 q 0.776112,0 1.552224,0.282223 0.776111,0.211667 1.552223,0.211667 0,-0.917223 -0.705556,-1.340557 -0.635001,-0.423334 -1.481668,-0.423334 -1.552223,0 -3.245558,0.141112 -1.693334,0.141111 -3.104446,0.282222 -0.282222,0.282222 -0.987779,0.282222 -0.846667,0 -1.552223,-0.705556 -0.705556,-0.705556 -0.705556,-1.481667 0,-1.834446 0.564445,-4.02167 0.564445,-2.257779 1.411112,-4.515558 0.846667,-2.328335 1.76389,-4.445003 0.917223,-2.187224 1.622779,-3.810003 0,-0.141111 0.07056,-0.282222 0.141111,-0.211667 0.211666,-0.352778 0.352778,0.141111 0.352778,0.635 v 0.282223 q -1.058334,3.386669 -2.046112,7.126116 -0.917223,3.739447 -0.917223,7.478894 v 1.058334 q 0,0.211666 0.07056,0.423333 0.07056,0.211667 0.141111,0.211667 h 8.113894 q 0.07056,0 0.211667,0.141111 0.211667,0.07056 0.282222,0.141111 0.282223,0.282223 0.987779,0.917223 0.705556,0.635001 0.846667,0.917223 0.211667,-0.282222 0.846667,-0.776112 0.705556,-0.564444 1.270001,-0.705556 -0.141111,0.141112 -0.141111,0.776112 0,0.564445 0.141111,0.705556 0.07056,0.141111 0.564445,0.211667 0.564445,0.07055 0.917223,0.07055 0.352778,0 0.917223,-0.141111 0.564445,-0.141111 0.564445,-0.635 V 54.22721 q -0.07056,-0.07056 -0.211667,-0.282223 -0.07056,-0.282222 -0.07056,-0.352778 0,-0.211667 0.423334,-0.211667 0.564445,0 0.776111,0.564445 0.282223,0.564445 0.846668,0.564445 h 0.282222 l 2.046113,-1.76389 h 8.043338 l 0.282223,-0.282222 q 0.07055,-0.07056 0.07055,-0.564445 0,-0.493889 0,-0.846667 0,-3.880559 -0.987778,-7.690561 -0.987779,-3.810003 -1.975557,-7.478894 l 0.282222,-0.352778 q 0.282223,0.211667 0.564445,0.917223 0.211667,0.564445 0.564445,1.552223 0.423334,0.917223 0.776112,1.905001 0.352778,0.917223 0.635,1.693335 0.352778,0.705556 0.352778,0.776111 0.07056,0.211667 0.352778,1.12889 0.282223,0.846667 0.635001,1.975557 0.352778,1.058334 0.635,2.116668 0.352778,1.058334 0.493889,1.552223 0.07056,0.211667 0.141111,0.705556 0.141112,0.493889 0.282223,1.12889 0.211667,0.564445 0.282222,1.058334 0.141111,0.493889 0.211667,0.705556 v 0.352778 0.282222 l -1.76389,1.76389 h -0.352778 q -1.834446,0 -3.668891,-0.352778 -1.834446,-0.352778 -3.668892,-0.352778 -0.776111,0 -1.693334,0.423334 -0.917223,0.352778 -0.917223,1.270001 0.141111,0 0.352778,0.07056 0.282222,0.07055 0.423334,0.07055 0.282222,-0.07055 1.128889,-0.352778 0.917223,-0.282222 1.199445,-0.423333 2.681113,0.705556 5.503338,1.411112 2.822224,0.635 5.503337,1.128889 0.07055,0 0.141111,0.07056 0.141111,0 0.211667,0 0.423333,0 0.564444,-0.282223 Q 84.526266,54.721102 84.173488,52.039989 83.82071,49.28832 83.18571,46.748319 82.621265,44.137761 81.704042,41.59776 80.857375,38.987202 79.65793,36.164978 v -0.635 h 0.282222 q 0.141111,0.282222 0.352778,0.564445 0.141111,0.282222 0.211667,0.564445 0.141111,0.211666 0.282222,0.352778 1.270001,2.39889 2.469446,4.938892 1.270001,2.540001 2.25778,5.150559 0.987778,2.610557 1.552223,5.362226 0.635,2.681112 0.635,5.432781 0,0.07056 -0.07055,0.141111 0,0 0,0.07056 v 0.211667 q -0.141111,0.141111 -0.49389,0.493889 -0.282222,0.352778 -0.635,0.776111 -0.352778,0.352779 -0.705556,0.705557 -0.352778,0.282222 -0.493889,0.423333 -0.07056,0.07056 -0.352778,0.211667 -0.211667,0.07056 -0.282223,0.07056 -2.892779,-1.411113 -5.644448,-2.25778 -2.751668,-0.917223 -6.067782,-0.917223 -0.635,0 -1.552223,0.141112 -0.917223,0.07055 -1.340556,0.705556 0.282222,0.635 0.987778,0.705556 0.776112,0.07055 1.552223,0.07055 0.846668,-0.07055 1.622779,0 0.776112,0 1.270001,0.49389 2.681113,3.03389 5.856115,5.432781 3.175002,2.328335 6.561671,4.586114 0.211667,0.141111 0.564445,0.211667 0.352778,0 0.635,0 0.352778,0 0.564445,0.07056 0.282223,0.07055 0.352778,0.352778 v 3.245557 q 0,5.503337 -1.411112,10.301118 -1.411112,4.727226 -3.316113,9.807229 -0.352778,0.776112 -0.776112,1.76389 -0.423333,0.987779 -1.058334,1.622779 v -0.705556 q 1.834446,-5.080003 2.681113,-10.160007 0.917223,-5.080003 0.917223,-10.442229 0,-0.423334 -0.07056,-1.270001 0,-0.846667 0,-0.917223 l -0.352778,-0.917223 q 0,-0.07055 -0.423333,-0.493889 -0.352778,-0.423333 -0.917223,-0.917223 -0.564445,-0.564444 -1.199445,-1.128889 -0.564445,-0.635001 -0.987779,-0.987779 -1.12889,-1.058334 -2.116668,-1.905001 -0.917223,-0.917223 -1.905001,-1.693334 -0.987779,-0.776112 -2.046113,-1.552224 -0.987778,-0.846667 -2.187223,-1.76389 -0.987779,-0.705556 -2.046113,-0.846667 -1.058334,-0.141111 -2.328335,-0.141111 0,0.352778 -0.141111,0.282222 -0.07056,-0.141111 0.352778,0.211667 0.211667,0.141111 0.705556,0.564445 0.493889,0.352778 1.058334,0.846667 0.564445,0.493889 1.058334,0.917223 0.493889,0.423334 0.705556,0.564445 0.211667,0.07055 0.635001,0.211667 0.493889,0.141111 0.635,0.423333 v 4.02167 q 0,4.586114 -0.211667,9.242784 -0.141111,4.586114 -0.846667,9.172228 -0.635,4.515558 -1.975557,8.890006 -1.270001,4.374446 -3.52778,8.466676 -0.211667,0.35277 -0.635001,0.35277 v -0.635 q 1.411113,-3.38667 2.187224,-6.84389 0.846667,-3.457224 1.270001,-6.985004 0.423334,-3.598336 0.564445,-7.196672 0.141111,-3.598336 0.141111,-7.196671 0,-2.187224 0,-3.951114 0,-1.834446 -0.282222,-4.092225 0.211666,-0.352778 0.211666,-0.635001 0.07056,-0.352778 0.07056,-0.705556 0,-0.423333 -0.493889,-1.128889 -0.423334,-0.776112 -1.12889,-1.481668 -0.635,-0.776112 -1.340556,-1.340556 -0.705556,-0.564445 -1.12889,-0.564445 0,0.917223 0.282223,1.622779 0.352778,0.705556 0.352778,1.693334 0,3.668892 -1.199446,7.337783 -1.128889,3.668891 -2.540001,7.05556 -0.352778,0.423334 -0.776112,0.423334 -0.564445,0 -1.12889,-0.917223 -0.564445,-0.987778 -1.128889,-2.398891 -0.49389,-1.481667 -0.987779,-3.245557 -0.493889,-1.76389 -0.846667,-3.386669 -0.282222,-1.693335 -0.493889,-2.963336 -0.211667,-1.27 -0.211667,-1.834445 0,-0.846667 0.352778,-1.481668 0.352778,-0.705556 0.352778,-1.481668 0,-0.07055 -0.07056,-0.282222 0,-0.211667 0,-0.282222 -0.423333,0.211666 -1.128889,0.846667 -0.635001,0.564445 -1.340557,1.270001 -0.705556,0.705556 -1.199445,1.411112 -0.493889,0.705556 -0.493889,1.128889 0,0.49389 0.141111,0.846668 0.211667,0.352778 0.211667,0.705556 0,2.046112 -0.211667,4.092225 -0.141111,2.046112 -0.141111,4.16278 0,7.267227 0.846667,14.252232 0.846667,6.985005 3.598336,13.828902 l -0.282223,0.28222 q -0.07055,-0.0706 -0.352778,-0.28222 -0.211666,-0.21167 -0.282222,-0.28223 Q 57.432916,101.1467 56.092359,96.772248 54.82236,92.397791 54.116804,87.882232 53.411248,83.366674 53.199581,78.78056 53.05847,74.194445 53.05847,69.819998 Z"
       id="text2"
       style="font-size:70.5556px;font-family:'THE AMAZING SPIDER-MAN';-inkscape-font-specification:'THE AMAZING SPIDER-MAN';text-align:center;text-anchor:middle;stroke-width:0.264583"
       aria-label="£" />
  </g>
</svg>
