<?xml version="1.0" encoding="UTF-8" standalone="no"?>
<!-- Created with Inkscape (http://www.inkscape.org/) -->

<svg
   width="47.131149mm"
   height="68.79171mm"
   viewBox="0 0 47.131149 68.79171"
   version="1.1"
   id="svg1"
   xmlns="http://www.w3.org/2000/svg"
   xmlns:svg="http://www.w3.org/2000/svg">
  <defs
     id="defs1" />
  <g
     id="layer1"
     transform="translate(-41.557936,-36.870535)">
    <path
       d="m 60.396287,79.980005 q 0,-0.564445 -0.352778,-1.340557 -0.282223,-0.776111 -0.846667,-0.776111 -0.635001,0 -1.76389,0.564444 -1.058335,0.49389 -2.187224,1.270001 -1.058334,0.705556 -1.905001,1.622779 -0.846668,0.846667 -0.846668,1.552223 -0.07055,0.917223 -0.211666,3.245558 -0.141112,2.328335 -0.282223,4.938892 -0.141111,2.610558 -0.282222,4.938893 -0.141112,2.328335 -0.211667,3.245557 0,0.282223 -0.07056,0.987776 0,0.70556 -0.211667,1.48167 -0.141111,0.70556 -0.564444,1.34056 -0.352778,0.56444 -1.12889,0.56444 -0.141111,0 -0.564445,-0.14111 -0.352778,-0.21167 -0.493889,-0.35278 v -1.76389 q 0,-5.150557 0.635,-10.442227 0.635001,-5.29167 0.917223,-10.512785 0.282223,-0.917222 0.987779,-1.481667 0.705556,-0.564445 1.622779,-0.917223 0.987778,-0.423334 1.975556,-0.635001 1.058334,-0.282222 1.905002,-0.564444 0.846667,-0.282223 1.411112,-0.635001 0.564445,-0.352778 0.564445,-0.987778 l -0.07056,-0.141111 q 0,-0.141112 -0.211667,-0.282223 -0.141111,-0.211667 -0.282222,-0.352778 h -0.352778 -0.141111 q -0.352778,0.141111 -1.693335,0.423334 -1.270001,0.282222 -2.751668,0.635 -1.481668,0.352778 -2.822225,0.705556 -1.340556,0.282223 -1.693334,0.352778 -0.07056,0 -0.423334,0.07056 -0.352778,0 -0.776111,0.07056 -0.423334,0.07056 -0.776112,0.141112 -0.282222,0.07055 -0.352778,0.141111 -0.635,0.211667 -0.917223,1.76389 -0.211667,1.552223 -0.352778,3.880558 -0.07055,2.257779 -0.141111,5.009448 -0.07056,2.681113 -0.352778,5.150559 -0.211667,2.39889 -0.776112,4.303892 -0.493889,1.905001 -1.481667,2.610557 -0.564445,-0.07056 -0.564445,-0.846667 0.07055,-0.846667 0.07055,-0.987779 0,-3.386669 0.49389,-6.773338 0.564445,-3.386669 0.564445,-6.914449 0,-2.257779 -0.352779,-4.445003 -0.282222,-2.187223 -0.282222,-4.445003 0,-0.917222 1.199445,-1.27 1.270001,-0.423334 3.175002,-0.635001 1.905002,-0.211667 4.02167,-0.282222 2.187224,-0.141112 4.092225,-0.49389 1.905001,-0.352778 3.104446,-0.987778 1.270001,-0.705556 1.270001,-1.975557 0,-0.282222 -1.058334,-0.635 -1.058334,-0.423334 -2.751668,-0.917223 -1.622779,-0.493889 -3.527781,-0.987779 -1.905001,-0.564444 -3.598335,-1.128889 -1.693335,-0.564445 -2.89278,-1.12889 -1.199445,-0.635 -1.411112,-1.270001 0.07056,-3.810002 -0.282222,-7.196671 -0.282223,-3.457225 -0.282223,-7.126116 0,-0.776112 0,-1.340557 0,-0.564444 0.987779,-0.564444 0.987778,0 1.411112,0.987778 0.493889,0.917223 0.635,2.398891 0.211667,1.481667 0.211667,3.245557 0,1.76389 0,3.457225 0.07055,1.622779 0.282222,2.963335 0.282223,1.270001 0.917223,1.76389 0.987779,0.705556 2.469446,1.411112 1.552223,0.705556 3.175002,1.340557 1.693335,0.635 3.175002,1.199445 1.552224,0.564445 2.540002,1.058334 0.423334,-0.141111 0.493889,-0.493889 0.07056,-0.423334 0.07056,-0.776112 0,-1.693334 -1.411112,-2.751668 -1.411112,-1.12889 -3.104447,-1.975557 -1.693334,-0.846667 -3.104446,-1.552224 -1.411112,-0.776111 -1.411112,-1.76389 0,-0.564444 0.07055,-0.846667 0.07056,-0.282222 0.423334,-0.776111 0,-0.211667 0,-0.776112 0.07056,-0.635001 0.07056,-1.270001 0,-0.635 0,-1.12889 0.07055,-0.564444 0.07055,-0.776111 0,-3.386669 -0.282222,-6.702783 -0.282223,-3.386668 -0.282223,-6.702782 0,-0.776111 0.07056,-1.340556 0.07056,-0.635001 0.917223,-0.635001 0.705556,0 1.058334,0.705556 0.423334,0.635001 0.564445,1.552224 0.211667,0.846667 0.211667,1.693334 0.07055,0.776112 0.07055,1.058334 0,0.141111 0,0.917223 0.07056,0.776112 0.07056,1.834446 0,0.987778 0,2.046112 0.07055,0.987779 0.07055,1.552223 0,0.352778 -0.07055,1.270001 0,0.917223 0,1.975557 0,1.058334 -0.07056,1.975557 0,0.917223 0,1.270001 -0.07055,0.211667 -0.282222,0.776112 -0.141111,0.493889 -0.141111,0.705556 0,0.141111 0.635,0.635 0.635,0.423334 1.411112,0.917223 0.846667,0.493889 1.552223,0.917223 0.705556,0.352778 0.846668,0.423333 0.211666,0.211667 0.635,0.564445 0.493889,0.282223 0.987778,0.635001 0.49389,0.282222 0.846668,0.564444 0.423333,0.282223 0.493889,0.352778 h 0.282222 q 0.07056,0 0.282223,-0.564444 0.282222,-0.564445 0.705556,-1.199446 0.493889,-0.705556 1.340556,-1.270001 0.846667,-0.564444 2.116668,-0.564444 1.340557,0 2.116668,0.564444 0.776112,0.564445 1.199446,1.270001 0.493889,0.635001 0.705556,1.199446 0.211666,0.564444 0.352778,0.564444 0.07055,0 1.058334,-0.635 0.987778,-0.635 2.187223,-1.411112 1.270001,-0.846667 2.398891,-1.552223 1.199445,-0.776112 1.552223,-0.987779 l 0.07056,-0.07055 q 0.07055,-0.07056 0.07055,-0.07056 0.07056,0 0.141112,-0.07056 0.141111,-0.07056 0.211666,-0.211666 0,-0.211667 -0.211666,-0.705556 -0.211667,-0.564445 -0.282223,-0.776112 v -6.491116 -6.350004 q 0,-0.282222 0,-1.058334 0.07056,-0.846667 0.211667,-1.693334 0.211667,-0.917223 0.564445,-1.552224 0.423333,-0.705556 1.128889,-0.705556 0.987779,0 0.987779,0.635001 0,0.564445 0,1.340556 0,3.316114 -0.282223,6.702782 -0.282222,3.316114 -0.282222,6.702783 0,0.211667 0,0.776111 0.07056,0.49389 0.07056,1.12889 0,0.635 0,1.270001 0.07056,0.564445 0.07056,0.776112 0.352778,0.493889 0.423334,0.776111 0.07055,0.282223 0.07055,0.846667 0,0.987779 -1.411112,1.76389 -1.411112,0.705557 -3.104446,1.552224 -1.622779,0.846667 -3.033891,1.975557 -1.411112,1.058334 -1.411112,2.751668 0,0.352778 0.07056,0.776112 0.07055,0.352778 0.493889,0.493889 1.058334,-0.493889 2.540001,-1.058334 1.552224,-0.564445 3.175003,-1.199445 1.622778,-0.635001 3.104446,-1.340557 1.481668,-0.705556 2.469446,-1.411112 0.705556,-0.493889 0.917223,-1.76389 0.282222,-1.340556 0.282222,-2.963335 0.07056,-1.693335 0.07056,-3.457225 0,-1.76389 0.141111,-3.245557 0.141111,-1.481668 0.564445,-2.398891 0.493889,-0.987778 1.481668,-0.987778 0.987778,0 0.987778,0.564444 0.07056,0.564445 0.07056,1.340557 0,3.668891 -0.352778,7.126116 -0.282223,3.386669 -0.141111,7.196671 -0.211667,0.635001 -1.411112,1.270001 -1.199446,0.564445 -2.89278,1.12889 -1.693335,0.564445 -3.668892,1.128889 -1.905001,0.49389 -3.52778,0.987779 -1.622779,0.493889 -2.751668,0.917223 -1.058334,0.352778 -1.058334,0.635 0,1.270001 1.199445,1.975557 1.270001,0.635 3.104447,0.987778 1.905001,0.352778 4.092224,0.49389 2.187224,0.07055 4.02167,0.282222 1.905001,0.211667 3.104446,0.635001 1.270001,0.423333 1.270001,1.27 0,2.25778 -0.352778,4.445003 -0.282222,2.187224 -0.282222,4.445003 0,3.52778 0.635,6.914449 0.635001,3.386669 0.635001,6.773338 0,0.141112 -0.07056,0.987779 0,0.776111 -0.635,0.846667 -0.846668,-0.564445 -1.270001,-1.76389 -0.423334,-1.199445 -0.705556,-2.610557 -0.211667,-1.411112 -0.282223,-2.751669 -0.07055,-1.411112 -0.141111,-2.257779 0,-0.282223 -0.141111,-1.411112 -0.07056,-1.12889 -0.141111,-2.469446 -0.07056,-1.340557 -0.141111,-2.610558 -0.07056,-1.270001 -0.07056,-1.905001 -0.07056,-1.481668 -0.07056,-2.328335 0,-0.917223 -0.282222,-1.481668 -0.211667,-0.635 -0.917223,-0.917222 -0.705556,-0.352778 -2.187224,-0.635001 -0.352778,-0.07055 -1.622778,-0.352778 -1.270001,-0.352778 -2.822225,-0.705556 -1.481667,-0.352778 -2.822224,-0.635 -1.340556,-0.282223 -1.693334,-0.423334 h -0.141111 -0.282223 q -0.07055,0.141111 -0.282222,0.352778 -0.141111,0.141111 -0.211667,0.282223 v 0.141111 q 0,0.917223 1.12889,1.340556 1.199445,0.423334 2.610557,0.846667 1.481668,0.423334 2.822224,1.058334 1.340556,0.635001 1.76389,1.975557 0.352778,5.221115 0.917223,10.512785 0.635,5.29167 0.635,10.442231 v 1.76389 q -0.141111,0.14111 -0.493889,0.35278 -0.352778,0.14111 -0.493889,0.14111 -0.776112,0 -1.199445,-0.56444 -0.423334,-0.635 -0.635001,-1.34056 -0.141111,-0.77611 -0.211667,-1.48167 0,-0.705557 0,-0.98778 -0.07055,-0.917222 -0.211666,-3.245557 -0.141112,-2.328335 -0.282223,-4.938893 -0.141111,-2.610557 -0.282222,-4.938892 -0.141111,-2.328335 -0.211667,-3.245558 0,-0.705556 -0.846667,-1.552223 -0.776112,-0.917223 -1.905002,-1.622779 -1.058334,-0.776111 -2.187223,-1.270001 -1.058334,-0.564444 -1.622779,-0.564444 -0.705556,0 -1.058334,0.776111 -0.282223,0.776112 -0.282223,1.340557 0,0.987778 0.564445,1.834445 0.564445,0.846668 1.199446,1.763891 0.635,0.846667 1.199445,1.834445 0.564445,0.917223 0.564445,1.975557 V 99.24169 q 0,1.76389 -0.776112,2.96334 -0.705556,1.19944 -1.905001,1.97556 -1.12889,0.77611 -2.610558,1.12889 -1.411112,0.35277 -2.822224,0.35277 -1.481667,0 -2.963335,-0.35277 -1.411112,-0.35278 -2.610557,-1.12889 -1.199446,-0.77612 -1.975557,-1.97556 -0.705556,-1.19945 -0.705556,-2.96334 V 87.388343 q 0,-1.058334 0.564445,-1.975557 0.564444,-0.987778 1.199445,-1.834445 0.635,-0.917223 1.199445,-1.763891 0.564445,-0.846667 0.564445,-1.834445 z"
       id="text2"
       style="font-size:70.5556px;font-family:'THE AMAZING SPIDER-MAN';-inkscape-font-specification:'THE AMAZING SPIDER-MAN';text-align:center;text-anchor:middle;stroke-width:0.264583"
       aria-label="…" />
  </g>
</svg>
