<?xml version="1.0" encoding="UTF-8" standalone="no"?>
<!-- Created with Inkscape (http://www.inkscape.org/) -->

<svg
   width="34.925022mm"
   height="65.969482mm"
   viewBox="0 0 34.925022 65.969482"
   version="1.1"
   id="svg1"
   xmlns="http://www.w3.org/2000/svg"
   xmlns:svg="http://www.w3.org/2000/svg">
  <defs
     id="defs1" />
  <g
     id="layer1"
     transform="translate(-47.625751,-36.870534)">
    <path
       d="M 78.38799,97.830572 74.154654,94.65557 73.378543,90.775012 72.814098,88.517233 71.614653,81.038339 71.050208,78.710004 70.20354,72.712778 69.356873,71.86611 H 58.914644 l -1.058334,4.02167 -3.810003,24.83557 -0.917222,1.905 -0.987779,-0.91722 -0.564445,-7.478893 -1.128889,-1.693335 v -4.021669 l -1.76389,-2.89278 v -4.586114 l 1.481667,-7.972783 -1.481667,-5.78556 -1.058335,-2.187223 3.457225,-0.705557 1.622779,-10.301118 2.046112,-10.018895 -1.481667,-4.303892 -1.693335,-1.76389 v -1.12889 h 20.955014 l 0.846668,1.693335 2.892779,18.344457 0.564445,2.892779 0.635001,4.515559 3.386669,0.776112 v 2.187223 l -2.610558,5.150559 2.257779,13.758343 0.917223,6.914449 1.12889,6.843893 v 2.89278 h -1.12889 l -2.046112,-2.04611 z M 68.580762,65.022217 66.181871,53.239431 64.488537,41.174423 l -1.411112,-1.411112 -1.199446,8.607784 -0.564445,2.822224 -2.046112,13.193897 z"
       id="text2"
       style="font-size:70.5556px;font-family:'THE AMAZING SPIDER-MAN';-inkscape-font-specification:'THE AMAZING SPIDER-MAN';text-align:center;text-anchor:middle;stroke-width:0.264583"
       aria-label="A" />
  </g>
</svg>
