<?xml version="1.0" encoding="UTF-8" standalone="no"?>
<!-- Created with Inkscape (http://www.inkscape.org/) -->

<svg
   width="30.973907mm"
   height="69.991158mm"
   viewBox="0 0 30.973907 69.991158"
   version="1.1"
   id="svg1"
   xmlns="http://www.w3.org/2000/svg"
   xmlns:svg="http://www.w3.org/2000/svg">
  <defs
     id="defs1" />
  <g
     id="layer1"
     transform="translate(-49.001545,-36.58831)">
    <path
       d="m 59.796555,102.98113 -2.187224,-2.11667 V 90.845568 l -3.951113,-2.398891 -0.635001,-45.508364 -3.457224,-0.635 v -3.386669 l -0.564445,-1.199445 v -1.12889 h 25.823351 l 5.150559,5.150559 v 13.617231 l -3.175003,4.092225 3.175003,4.303892 -0.564445,24.55335 -9.172229,13.123344 H 64.52378 l -0.564444,1.12889 -4.02167,4.02167 H 58.59711 Z m 2.963335,-8.466671 3.457225,-3.457225 1.693334,-3.386669 4.586115,-5.785559 V 65.868884 L 71.861563,63.68166 69.109895,66.433329 62.195446,71.23111 V 93.950014 Z M 60.502111,61.847215 h 1.622779 l 8.678339,-6.350004 1.12889,-0.564445 v -1.975557 l -1.693335,-2.610558 -0.635,-7.408338 h -9.101673 z"
       id="text2"
       style="font-size:70.5556px;font-family:'THE AMAZING SPIDER-MAN';-inkscape-font-specification:'THE AMAZING SPIDER-MAN';text-align:center;text-anchor:middle;stroke-width:0.264583"
       aria-label="B" />
  </g>
</svg>
