<?xml version="1.0" encoding="UTF-8" standalone="no"?>
<!-- Created with Inkscape (http://www.inkscape.org/) -->

<svg
   width="29.703909mm"
   height="71.120049mm"
   viewBox="0 0 29.703909 71.120049"
   version="1.1"
   id="svg1"
   xmlns="http://www.w3.org/2000/svg"
   xmlns:svg="http://www.w3.org/2000/svg">
  <defs
     id="defs1" />
  <g
     id="layer1"
     transform="translate(-49.883516,-37.01164)">
    <path
       d="m 59.196858,104.88613 -1.834446,-2.75167 v -9.666114 l -3.457224,-2.257779 -0.564445,-46.143364 -2.328335,-3.033891 -0.564445,-2.328335 -0.564445,-1.12889 0.564445,-0.564444 h 10.301118 l 1.199445,0.564444 4.02167,-0.564444 h 13.617231 l -2.751668,10.865562 -1.693335,3.457225 h -0.564445 l -1.622779,-5.644448 -2.39889,-1.199446 -1.76389,-0.635 -0.564445,-0.564445 h -6.843894 v 52.211146 l 0.776112,0.846668 4.374447,-6.561671 0.564445,-1.12889 4.02167,-5.362226 V 62.834993 l -4.02167,-4.021669 v -1.12889 H 77.964648 V 78.851115 L 77.400203,79.41556 76.835759,89.575567 68.79242,102.98113 h -5.150559 l -1.12889,2.25778 -2.89278,2.89278 h -1.552223 z"
       id="text2"
       style="font-size:70.5556px;font-family:'THE AMAZING SPIDER-MAN';-inkscape-font-specification:'THE AMAZING SPIDER-MAN';text-align:center;text-anchor:middle;stroke-width:0.264583"
       aria-label="G" />
  </g>
</svg>
