<?xml version="1.0" encoding="UTF-8" standalone="no"?>
<!-- Created with Inkscape (http://www.inkscape.org/) -->

<svg
   width="34.148914mm"
   height="69.991158mm"
   viewBox="0 0 34.148914 69.991158"
   version="1.1"
   id="svg1"
   xmlns="http://www.w3.org/2000/svg"
   xmlns:svg="http://www.w3.org/2000/svg">
  <defs
     id="defs1" />
  <g
     id="layer1"
     transform="translate(-47.096548,-36.72942)">
    <path
       d="M 54.293225,97.54835 53.376002,94.937793 50.836,92.397791 50.271555,42.444424 48.507665,40.186645 47.94322,38.422755 47.096553,36.72942 h 10.58334 v 25.823351 h 1.199446 l 1.693334,-3.457225 5.150559,-8.607783 1.76389,-3.457225 3.668892,-5.432781 -0.846668,-3.175002 -0.846667,-1.693335 h 10.865563 l -3.668891,8.607784 -2.328335,5.715004 -4.02167,8.043338 -2.116668,6.42056 5.573893,15.381122 0.564445,1.693334 6.914449,18.979458 v 1.12889 H 79.763797 L 77.223795,99.241684 75.812683,95.855015 69.744902,91.76279 66.287677,83.225562 65.723232,82.026117 61.137118,70.59611 58.879339,66.009995 h -1.199446 v 40.710585 h -1.128889 l -0.564445,-5.71501 z"
       id="text2"
       style="font-size:70.5556px;font-family:'THE AMAZING SPIDER-MAN';-inkscape-font-specification:'THE AMAZING SPIDER-MAN';text-align:center;text-anchor:middle;stroke-width:0.264583"
       aria-label="K" />
  </g>
</svg>
