<?xml version="1.0" encoding="UTF-8" standalone="no"?>
<!-- Created with Inkscape (http://www.inkscape.org/) -->

<svg
   width="38.029465mm"
   height="61.947819mm"
   viewBox="0 0 38.029465 61.947819"
   version="1.1"
   id="svg1"
   xmlns="http://www.w3.org/2000/svg"
   xmlns:svg="http://www.w3.org/2000/svg">
  <defs
     id="defs1" />
  <g
     id="layer1"
     transform="translate(-45.791272,-36.799975)">
    <path
       d="m 54.9635,93.597236 -2.822224,-1.76389 -0.846667,-2.39889 -2.046113,-2.751669 V 44.843314 L 47.555162,40.2572 45.791272,37.928865 v -1.128889 h 9.736673 l 1.481668,1.481667 8.184449,18.485568 1.834446,1.834446 2.89278,-8.607784 1.12889,-2.328334 0.564444,-1.693335 2.328335,-5.715004 v -3.316113 h 9.877785 L 82.480185,41.38609 81.91574,98.747795 h -1.411112 l -0.846667,-1.693334 -0.635,-4.374448 -3.951114,-5.997226 V 59.166102 h -1.12889 v 1.12889 l -1.76389,3.457224 -2.257779,6.914449 -3.175002,6.279449 H 65.405729 L 64.559062,72.501111 63.571284,70.666665 59.126281,59.166102 H 58.420725 L 57.85628,98.747795 h -1.552223 z"
       id="text2"
       style="font-size:70.5556px;font-family:'THE AMAZING SPIDER-MAN';-inkscape-font-specification:'THE AMAZING SPIDER-MAN';text-align:center;text-anchor:middle;stroke-width:0.264583"
       aria-label="M" />
  </g>
</svg>
