<?xml version="1.0" encoding="UTF-8" standalone="no"?>
<!-- Created with Inkscape (http://www.inkscape.org/) -->

<svg
   width="26.952238mm"
   height="64.276161mm"
   viewBox="0 0 26.952238 64.276161"
   version="1.1"
   id="svg1"
   xmlns="http://www.w3.org/2000/svg"
   xmlns:svg="http://www.w3.org/2000/svg">
  <defs
     id="defs1" />
  <g
     id="layer1"
     transform="translate(-51.964918,-36.658866)">
    <path
       d="m 73.484374,93.879459 -5.432781,-3.245558 -2.328335,1.128889 -1.12889,1.12889 -2.328335,1.12889 -0.564444,1.199445 -3.386669,3.386669 H 56.762696 L 54.857695,92.89168 51.964915,90.069456 V 41.597757 l 1.763891,-2.610558 1.128889,-2.328334 h 17.780012 l 2.257779,3.457224 2.328335,3.033891 v 37.606136 l -3.598335,4.374448 5.29167,14.675565 v 1.128891 h -1.12889 L 75.31882,98.465573 Z M 60.572699,86.612231 h 1.340556 l 2.116669,-2.892779 -1.905002,-5.080004 5.926671,-0.635 1.12889,-1.12889 0.776111,-31.891132 -1.905001,-1.975557 h -5.78556 l -1.693334,0.846667 z"
       id="text2"
       style="font-size:70.5556px;font-family:'THE AMAZING SPIDER-MAN';-inkscape-font-specification:'THE AMAZING SPIDER-MAN';text-align:center;text-anchor:middle;stroke-width:0.264583"
       aria-label="Q" />
  </g>
</svg>
