<?xml version="1.0" encoding="UTF-8" standalone="no"?>
<!-- Created with Inkscape (http://www.inkscape.org/) -->

<svg
   width="34.995579mm"
   height="68.862274mm"
   viewBox="0 0 34.995579 68.862274"
   version="1.1"
   id="svg1"
   xmlns="http://www.w3.org/2000/svg"
   xmlns:svg="http://www.w3.org/2000/svg">
  <defs
     id="defs1" />
  <g
     id="layer1"
     transform="translate(-47.202381,-36.799978)">
    <path
       d="M 55.245724,96.490016 54.681279,94.726126 51.7885,90.704456 51.224055,43.14998 47.202385,42.303313 V 41.38609 l 1.693335,-1.693335 h 2.116668 l -1.905001,-2.892779 h 21.590014 l 1.199445,1.76389 3.386669,1.975557 0.635001,3.175002 0.917223,1.905001 -2.681113,6.702782 -0.564445,1.12889 -2.328335,5.150559 -1.693335,3.457225 v 3.598335 l 4.586115,12.488342 1.128889,3.386669 6.914449,18.979462 v 1.12888 h -1.27 l -2.751669,-3.45722 -1.340556,-3.386669 -6.138338,-4.092225 -3.386669,-8.537228 -0.635,-1.199445 -2.25778,-5.715004 -1.128889,-2.328335 -1.199445,-2.822224 -0.564445,-1.128889 -1.622779,-4.02167 h -1.199445 v 40.710579 h -1.199446 l -0.564444,-5.715 z m 3.457225,-34.995579 h 1.128889 l 1.12889,-2.328335 6.350004,-10.865563 1.12889,-2.328335 1.128889,-1.693334 V 43.14998 H 58.702949 Z"
       id="text2"
       style="font-size:70.5556px;font-family:'THE AMAZING SPIDER-MAN';-inkscape-font-specification:'THE AMAZING SPIDER-MAN';text-align:center;text-anchor:middle;stroke-width:0.264583"
       aria-label="R" />
  </g>
</svg>
