<?xml version="1.0" encoding="UTF-8" standalone="no"?>
<!-- Created with Inkscape (http://www.inkscape.org/) -->

<svg
   width="31.467798mm"
   height="69.991158mm"
   viewBox="0 0 31.467798 69.991158"
   version="1.1"
   id="svg1"
   xmlns="http://www.w3.org/2000/svg"
   xmlns:svg="http://www.w3.org/2000/svg">
  <defs
     id="defs1" />
  <g
     id="layer1"
     transform="translate(-48.754631,-36.658867)">
    <path
       d="m 53.340743,98.606684 0.564445,-1.12889 3.457224,-4.586114 0.987779,-1.905001 3.03389,-3.810003 v -4.021669 l 1.12889,-1.76389 1.199445,-2.257779 0.564445,-0.564445 4.374448,-5.715004 L 57.221301,64.17555 H 53.905188 L 53.270187,62.058882 48.754629,58.742768 V 55.567766 L 65.405751,38.987199 66.53464,36.658865 h 13.687787 l -1.622778,6.350004 -0.564445,1.693334 -1.76389,6.279449 h -1.12889 l -1.12889,-4.021669 -1.76389,-1.693335 h -0.564445 v 0.564445 l -10.230562,10.865563 13.687787,10.865563 0.564445,3.52778 2.39889,4.092225 -5.221114,7.408338 -1.199446,1.693335 -4.021669,5.715003 -5.715004,8.607784 -1.693334,1.763886 -3.951114,1.55223 -1.481668,2.89278 -5.503337,1.83444 v -2.39889 z"
       id="text2"
       style="font-size:70.5556px;font-family:'THE AMAZING SPIDER-MAN';-inkscape-font-specification:'THE AMAZING SPIDER-MAN';text-align:center;text-anchor:middle;stroke-width:0.264583"
       aria-label="S" />
  </g>
</svg>
