<?xml version="1.0" encoding="UTF-8" standalone="no"?>
<!-- Created with Inkscape (http://www.inkscape.org/) -->

<svg
   width="48.189472mm"
   height="59.196156mm"
   viewBox="0 0 48.189472 59.196156"
   version="1.1"
   id="svg1"
   xmlns="http://www.w3.org/2000/svg"
   xmlns:svg="http://www.w3.org/2000/svg">
  <defs
     id="defs1" />
  <g
     id="layer1"
     transform="translate(-40.640747,-36.658867)">
    <path
       d="M 56.021868,89.857789 53.834644,87.670565 V 85.977231 L 51.435754,82.802229 48.684085,66.997774 V 65.304439 L 45.791306,56.696656 44.309638,46.254427 42.334081,42.373868 v -2.892779 l -1.693334,-1.905002 0.564444,-0.564444 h 9.31334 l 3.457225,23.565571 0.987778,3.033891 h 0.846667 l 3.668892,-24.200572 -2.116669,-2.116668 3.951114,-0.635 h 8.043339 l 1.12889,1.128889 0.564444,5.150559 1.693335,10.301118 1.340556,9.383895 0.987779,0.987779 0.564445,-0.564445 3.598335,-23.283349 -1.693334,-2.822224 h 11.288896 v 3.104446 l -2.469446,4.092225 -0.987778,7.972784 -6.843894,43.038917 -0.776111,0.705556 -1.552224,-3.03389 -0.564444,-2.822225 -1.693335,-1.76389 -0.635,-2.822224 -1.905002,-1.975557 -3.457224,-20.743347 -2.89278,-7.05556 -6.42056,40.075582 H 57.856314 L 56.79798,94.65557 Z"
       id="text2"
       style="font-size:70.5556px;font-family:'THE AMAZING SPIDER-MAN';-inkscape-font-specification:'THE AMAZING SPIDER-MAN';text-align:center;text-anchor:middle;stroke-width:0.264583"
       aria-label="W" />
  </g>
</svg>
