<?xml version="1.0" encoding="UTF-8" standalone="no"?>
<!-- Created with Inkscape (http://www.inkscape.org/) -->

<svg
   width="30.409466mm"
   height="63.641163mm"
   viewBox="0 0 30.409466 63.641163"
   version="1.1"
   id="svg1"
   xmlns="http://www.w3.org/2000/svg"
   xmlns:svg="http://www.w3.org/2000/svg">
  <defs
     id="defs1" />
  <g
     id="layer1"
     transform="translate(-49.319082,-37.011641)">
    <path
       d="M 75.424661,94.091125 69.215768,87.882232 64.700209,72.571666 H 63.07743 l -7.69056,26.670018 -2.046113,-2.046112 v -6.843894 l -1.693334,-3.457224 v -2.89278 L 57.362427,63.963883 V 57.75499 l -2.89278,-6.42056 -1.905001,-7.831672 -2.116668,-3.104447 v -1.693334 l -1.12889,-1.12889 v -0.564444 h 9.172228 l 1.12889,1.128889 v 1.12889 l 0.635,2.328335 1.12889,5.150559 0.564445,2.257779 1.340556,6.42056 1.552224,1.693334 3.810002,-17.991678 -1.552223,-1.552224 0.564445,-0.564444 h 11.500563 v 2.257779 l -2.398891,2.39889 -5.432781,23.847794 0.917223,4.727226 1.199445,3.457224 6.279449,25.258906 v 1.693338 h -0.564445 l -2.328335,-2.328338 z"
       id="text2"
       style="font-size:70.5556px;font-family:'THE AMAZING SPIDER-MAN';-inkscape-font-specification:'THE AMAZING SPIDER-MAN';text-align:center;text-anchor:middle;stroke-width:0.264583"
       aria-label="X" />
  </g>
</svg>
