<?xml version="1.0" encoding="UTF-8" standalone="no"?>
<!-- Created with Inkscape (http://www.inkscape.org/) -->

<svg
   width="29.280577mm"
   height="62.512264mm"
   viewBox="0 0 29.280577 62.512264"
   version="1.1"
   id="svg1"
   xmlns="http://www.w3.org/2000/svg"
   xmlns:svg="http://www.w3.org/2000/svg">
  <defs
     id="defs1" />
  <g
     id="layer1"
     transform="translate(-50.800743,-36.729421)">
    <path
       d="m 53.693521,95.220015 3.810002,-13.335009 0.776112,-3.880558 10.230562,-34.995579 h -6.843893 l -0.564445,0.564445 -3.386669,1.199445 -1.199445,2.257779 -1.12889,4.02167 H 54.610744 L 50.800741,39.551644 V 36.72942 h 13.193898 l 3.457224,0.564445 1.693335,-0.564445 h 10.371673 l 0.564445,0.564445 -0.564445,1.12889 -0.635,2.328334 -2.540002,3.457225 -2.046112,7.972783 -3.598336,10.936119 -3.810003,14.322787 -3.668891,12.629453 h 13.97001 l 1.128889,1.12889 -2.257779,2.328335 h -4.303892 l -5.150559,3.386668 h -3.739447 l -2.328335,1.199446 H 58.84408 l -2.328335,1.128889 h -2.822224 z"
       id="text2"
       style="font-size:70.5556px;font-family:'THE AMAZING SPIDER-MAN';-inkscape-font-specification:'THE AMAZING SPIDER-MAN';text-align:center;text-anchor:middle;stroke-width:0.264583"
       aria-label="Z" />
  </g>
</svg>
